<mxfile host="app.diagrams.net" modified="2023-11-06T17:59:18.124Z" agent="Mozilla/5.0 (Windows NT 10.0; Win64; x64) AppleWebKit/537.36 (KHTML, like Gecko) Chrome/119.0.0.0 Safari/537.36" etag="DP5IFZw9Z1jPomjJVCWv" version="22.0.8" type="device">
  <diagram name="Trang-1" id="1DVXCoN6GQm44zPS3Nxd">
    <mxGraphModel dx="1050" dy="574" grid="1" gridSize="10" guides="1" tooltips="1" connect="1" arrows="1" fold="1" page="0" pageScale="1" pageWidth="827" pageHeight="1169" math="0" shadow="0">
      <root>
        <mxCell id="0" />
        <mxCell id="1" parent="0" />
        <mxCell id="Z-B5iAWtW-jw6fhLVMX3-1" value="START" style="ellipse;whiteSpace=wrap;html=1;" parent="1" vertex="1">
          <mxGeometry x="348" y="180" width="120" height="80" as="geometry" />
        </mxCell>
        <mxCell id="Z-B5iAWtW-jw6fhLVMX3-2" value="" style="endArrow=classic;html=1;rounded=0;" parent="1" edge="1">
          <mxGeometry width="50" height="50" relative="1" as="geometry">
            <mxPoint x="409.66" y="260" as="sourcePoint" />
            <mxPoint x="409.66" y="310" as="targetPoint" />
          </mxGeometry>
        </mxCell>
        <mxCell id="Z-B5iAWtW-jw6fhLVMX3-5" value="a,b" style="shape=parallelogram;perimeter=parallelogramPerimeter;whiteSpace=wrap;html=1;fixedSize=1;" parent="1" vertex="1">
          <mxGeometry x="348" y="310" width="120" height="60" as="geometry" />
        </mxCell>
        <mxCell id="Z-B5iAWtW-jw6fhLVMX3-6" value="" style="endArrow=classic;html=1;rounded=0;entryX=0.25;entryY=1;entryDx=0;entryDy=0;" parent="1" edge="1">
          <mxGeometry width="50" height="50" relative="1" as="geometry">
            <mxPoint x="408" y="373" as="sourcePoint" />
            <mxPoint x="408" y="451" as="targetPoint" />
          </mxGeometry>
        </mxCell>
        <mxCell id="Z-B5iAWtW-jw6fhLVMX3-8" value="" style="endArrow=classic;html=1;rounded=0;" parent="1" edge="1">
          <mxGeometry width="50" height="50" relative="1" as="geometry">
            <mxPoint x="407" y="515" as="sourcePoint" />
            <mxPoint x="407" y="575" as="targetPoint" />
          </mxGeometry>
        </mxCell>
        <mxCell id="Z-B5iAWtW-jw6fhLVMX3-9" value="a=0" style="rhombus;whiteSpace=wrap;html=1;" parent="1" vertex="1">
          <mxGeometry x="368" y="570" width="80" height="80" as="geometry" />
        </mxCell>
        <mxCell id="Z-B5iAWtW-jw6fhLVMX3-36" value="END" style="ellipse;whiteSpace=wrap;html=1;" parent="1" vertex="1">
          <mxGeometry x="350" y="1010" width="120" height="80" as="geometry" />
        </mxCell>
        <mxCell id="ydFgWSx_CgifsZ7k3wHh-1" value="X=nghiệm" style="rounded=0;whiteSpace=wrap;html=1;" vertex="1" parent="1">
          <mxGeometry x="347" y="453" width="120" height="60" as="geometry" />
        </mxCell>
        <mxCell id="ydFgWSx_CgifsZ7k3wHh-2" value="x=-b/a" style="rounded=0;whiteSpace=wrap;html=1;" vertex="1" parent="1">
          <mxGeometry x="350" y="730" width="120" height="60" as="geometry" />
        </mxCell>
        <mxCell id="ydFgWSx_CgifsZ7k3wHh-3" value="" style="endArrow=classic;html=1;rounded=0;" edge="1" parent="1">
          <mxGeometry width="50" height="50" relative="1" as="geometry">
            <mxPoint x="408" y="650" as="sourcePoint" />
            <mxPoint x="408" y="730" as="targetPoint" />
          </mxGeometry>
        </mxCell>
        <mxCell id="ydFgWSx_CgifsZ7k3wHh-4" value="False" style="text;html=1;align=center;verticalAlign=middle;resizable=0;points=[];autosize=1;strokeColor=none;fillColor=none;" vertex="1" parent="1">
          <mxGeometry x="405" y="668" width="50" height="30" as="geometry" />
        </mxCell>
        <mxCell id="ydFgWSx_CgifsZ7k3wHh-7" value="" style="endArrow=classic;html=1;rounded=0;exitX=0.5;exitY=1;exitDx=0;exitDy=0;" edge="1" parent="1" source="ydFgWSx_CgifsZ7k3wHh-2">
          <mxGeometry width="50" height="50" relative="1" as="geometry">
            <mxPoint x="409" y="927" as="sourcePoint" />
            <mxPoint x="410" y="880" as="targetPoint" />
          </mxGeometry>
        </mxCell>
        <mxCell id="ydFgWSx_CgifsZ7k3wHh-12" value="" style="endArrow=classic;html=1;rounded=0;" edge="1" parent="1">
          <mxGeometry width="50" height="50" relative="1" as="geometry">
            <mxPoint x="412" y="940" as="sourcePoint" />
            <mxPoint x="412" y="1010" as="targetPoint" />
          </mxGeometry>
        </mxCell>
        <mxCell id="ydFgWSx_CgifsZ7k3wHh-14" value="" style="endArrow=classic;html=1;rounded=0;" edge="1" parent="1">
          <mxGeometry width="50" height="50" relative="1" as="geometry">
            <mxPoint x="448" y="609.5" as="sourcePoint" />
            <mxPoint x="505" y="609.5" as="targetPoint" />
          </mxGeometry>
        </mxCell>
        <mxCell id="ydFgWSx_CgifsZ7k3wHh-15" value="True&lt;br&gt;" style="text;html=1;align=center;verticalAlign=middle;resizable=0;points=[];autosize=1;strokeColor=none;fillColor=none;" vertex="1" parent="1">
          <mxGeometry x="435" y="568" width="50" height="30" as="geometry" />
        </mxCell>
        <mxCell id="ydFgWSx_CgifsZ7k3wHh-17" value="b=0" style="rhombus;whiteSpace=wrap;html=1;" vertex="1" parent="1">
          <mxGeometry x="505" y="570" width="80" height="80" as="geometry" />
        </mxCell>
        <mxCell id="ydFgWSx_CgifsZ7k3wHh-19" value="" style="endArrow=classic;html=1;rounded=0;" edge="1" parent="1">
          <mxGeometry width="50" height="50" relative="1" as="geometry">
            <mxPoint x="585" y="609.5" as="sourcePoint" />
            <mxPoint x="642" y="609.5" as="targetPoint" />
          </mxGeometry>
        </mxCell>
        <mxCell id="ydFgWSx_CgifsZ7k3wHh-20" value="True" style="text;html=1;align=center;verticalAlign=middle;resizable=0;points=[];autosize=1;strokeColor=none;fillColor=none;" vertex="1" parent="1">
          <mxGeometry x="575" y="568" width="50" height="30" as="geometry" />
        </mxCell>
        <mxCell id="ydFgWSx_CgifsZ7k3wHh-21" value="Phương trình vô số nghiệm." style="rounded=0;whiteSpace=wrap;html=1;" vertex="1" parent="1">
          <mxGeometry x="640" y="580" width="120" height="60" as="geometry" />
        </mxCell>
        <mxCell id="ydFgWSx_CgifsZ7k3wHh-22" value="" style="endArrow=classic;html=1;rounded=0;" edge="1" parent="1">
          <mxGeometry width="50" height="50" relative="1" as="geometry">
            <mxPoint x="544.5" y="650" as="sourcePoint" />
            <mxPoint x="544.5" y="730" as="targetPoint" />
          </mxGeometry>
        </mxCell>
        <mxCell id="ydFgWSx_CgifsZ7k3wHh-23" value="False" style="text;html=1;align=center;verticalAlign=middle;resizable=0;points=[];autosize=1;strokeColor=none;fillColor=none;" vertex="1" parent="1">
          <mxGeometry x="550" y="668" width="50" height="30" as="geometry" />
        </mxCell>
        <mxCell id="ydFgWSx_CgifsZ7k3wHh-24" value="Phương trình vô nghiệm." style="rounded=0;whiteSpace=wrap;html=1;" vertex="1" parent="1">
          <mxGeometry x="505" y="731" width="120" height="60" as="geometry" />
        </mxCell>
        <mxCell id="ydFgWSx_CgifsZ7k3wHh-25" value="Nghiệm" style="shape=parallelogram;perimeter=parallelogramPerimeter;whiteSpace=wrap;html=1;fixedSize=1;" vertex="1" parent="1">
          <mxGeometry x="350" y="880" width="120" height="60" as="geometry" />
        </mxCell>
        <mxCell id="ydFgWSx_CgifsZ7k3wHh-26" value="" style="endArrow=classic;html=1;rounded=0;exitX=0.5;exitY=1;exitDx=0;exitDy=0;" edge="1" parent="1">
          <mxGeometry width="50" height="50" relative="1" as="geometry">
            <mxPoint x="699.5" y="641" as="sourcePoint" />
            <mxPoint x="700" y="910" as="targetPoint" />
          </mxGeometry>
        </mxCell>
        <mxCell id="ydFgWSx_CgifsZ7k3wHh-27" value="" style="endArrow=classic;html=1;rounded=0;exitX=0.5;exitY=1;exitDx=0;exitDy=0;" edge="1" parent="1">
          <mxGeometry width="50" height="50" relative="1" as="geometry">
            <mxPoint x="550" y="791" as="sourcePoint" />
            <mxPoint x="550" y="881" as="targetPoint" />
          </mxGeometry>
        </mxCell>
        <mxCell id="ydFgWSx_CgifsZ7k3wHh-28" value="" style="endArrow=classic;html=1;rounded=0;entryX=1;entryY=0.5;entryDx=0;entryDy=0;" edge="1" parent="1" target="ydFgWSx_CgifsZ7k3wHh-25">
          <mxGeometry width="50" height="50" relative="1" as="geometry">
            <mxPoint x="705" y="909.5" as="sourcePoint" />
            <mxPoint x="585" y="909.5" as="targetPoint" />
          </mxGeometry>
        </mxCell>
        <mxCell id="ydFgWSx_CgifsZ7k3wHh-29" value="" style="endArrow=classic;html=1;rounded=0;entryX=1;entryY=0.5;entryDx=0;entryDy=0;" edge="1" parent="1">
          <mxGeometry width="50" height="50" relative="1" as="geometry">
            <mxPoint x="550" y="880" as="sourcePoint" />
            <mxPoint x="470" y="880" as="targetPoint" />
          </mxGeometry>
        </mxCell>
      </root>
    </mxGraphModel>
  </diagram>
</mxfile>
